# xmcd
#
# Track frame offsets: 
#        182
#        12257
#        23582
#        36420
#        50232
#        64245
#        78932
#        93270
#        106870
#        120707
#        136457
#        148907
#        162832
#        177370
#        192845
#        206957
#        220557
#        234607
#        248882
#        264857
#
# Disc length: 3714 seconds
#
# Revision: 7
# Processed by: cddbd v1.5.2PL0 Copyright (c) Steve Scherf et al.
# Submitted via: ExactAudioCopyFreeDBPlugin 1.0
#
DISCID=1d0e8014
DTITLE=Louis Armstrong - Anthology
DYEAR=1993
DGENRE=Blues
TTITLE0=Muskrat Ramble
TTITLE1=My Heart
TTITLE2=Gut Bucket Blues
TTITLE3=Heebie Jeebies
TTITLE4=Cornet Chop Suey
TTITLE5=Skid-Dat De Dat
TTITLE6=Ory's Creole Trombone
TTITLE7=Struttin' With Some Barbeque
TTITLE8=Hotter Than That
TTITLE9=Savoy Blues
TTITLE10=New Orleans Stomp
TTITLE11=Wild Man Blues
TTITLE12=Willie The Weeper
TTITLE13=Chicago Breakdown
TTITLE14=Alligator Crawl
TTITLE15=Potato Head Blues
TTITLE16=Melancholy
TTITLE17=12th Street Rag
TTITLE18=Keyhole Blues
TTITLE19=That's When I'll Come Back To You
EXTD=YEAR: 1997
EXTT0=
EXTT1=
EXTT2=
EXTT3=
EXTT4=
EXTT5=
EXTT6=
EXTT7=
EXTT8=
EXTT9=
EXTT10=
EXTT11=
EXTT12=
EXTT13=
EXTT14=
EXTT15=
EXTT16=
EXTT17=
EXTT18=
EXTT19=
PLAYORDER=
